<?xml version="1.0" standalone="no"?>
<!DOCTYPE svg PUBLIC "-//W3C//DTD SVG 20010904//EN"
 "http://www.w3.org/TR/2001/REC-SVG-20010904/DTD/svg10.dtd">
<svg version="1.0" xmlns="http://www.w3.org/2000/svg"
 width="3951.000000pt" height="3421.000000pt" viewBox="0 0 3951.000000 3421.000000"
 preserveAspectRatio="xMidYMid meet">

<g transform="translate(0.000000,3421.000000) scale(0.100000,-0.100000)"
fill="#000000" stroke="none">
<path d="M20103 34200 c-339 -10 -631 -25 -1083 -56 -201 -13 -675 -45 -1055
-69 -1209 -79 -1723 -124 -2350 -205 -82 -11 -247 -26 -365 -35 -359 -25 -422
-35 -720 -111 -1056 -272 -2435 -746 -3515 -1209 -1468 -629 -2832 -1465
-3900 -2390 -1148 -994 -2078 -2186 -2715 -3480 -443 -900 -754 -1848 -915
-2791 -38 -223 -49 -255 -97 -301 -49 -47 -77 -54 -258 -64 -215 -11 -363 -32
-525 -74 -689 -177 -1278 -601 -1742 -1256 -440 -620 -698 -1357 -803 -2289
-60 -533 -65 -1194 -14 -1690 62 -611 205 -1181 425 -1702 286 -678 673 -1271
1071 -1642 465 -432 1010 -698 1628 -795 224 -35 236 -38 268 -75 22 -25 34
-57 51 -132 54 -236 137 -559 183 -708 239 -774 621 -1492 1140 -2142 542
-679 1159 -1214 1923 -1668 156 -93 227 -158 256 -235 19 -51 20 -69 13 -240
-7 -204 1 -304 43 -511 159 -796 537 -1538 1102 -2170 528 -589 1176 -1162
1981 -1752 1671 -1224 3770 -2437 5652 -3266 768 -339 1677 -688 2233 -858
1005 -307 1862 -358 2840 -168 498 97 973 245 1705 532 2541 994 5012 2332
6953 3763 952 703 1516 1204 1981 1759 710 848 1068 1726 1092 2675 6 222 14
275 50 322 14 18 82 72 152 120 675 462 1045 756 1412 1123 976 974 1603 2095
1855 3316 40 189 49 216 87 250 31 29 64 38 256 74 527 98 824 222 1245 518
251 175 546 455 745 704 400 503 726 1180 916 1903 93 353 153 722 188 1160
16 210 16 1056 0 1265 -45 556 -131 1007 -277 1445 -182 548 -424 1001 -732
1373 -117 141 -357 371 -502 481 -470 357 -846 498 -1544 576 -213 23 -255 34
-289 71 -27 30 -37 67 -74 268 -371 2017 -1239 3762 -2645 5321 -1345 1491
-3313 2763 -5683 3674 -886 341 -2129 730 -2920 915 -191 45 -205 50 -355 126
l-156 80 -180 29 c-325 53 -638 85 -1205 121 -392 25 -539 36 -805 60 -496 45
-771 59 -1325 64 -239 2 -553 1 -697 -4z m637 -1700 c1370 -60 2612 -232 4220
-586 1272 -280 2699 -762 3791 -1279 484 -230 1073 -559 1484 -830 260 -171
264 -192 160 -702 -81 -393 -124 -587 -181 -815 -184 -737 -473 -1477 -797
-2040 -100 -174 -111 -200 -103 -231 7 -30 42 -45 221 -98 198 -59 358 -120
520 -198 125 -60 187 -98 382 -233 101 -70 218 -72 316 -7 59 39 83 72 152
209 319 635 413 890 701 1891 166 576 173 603 180 704 8 114 19 144 60 161 29
12 39 12 67 0 41 -17 335 -309 491 -486 141 -161 399 -480 518 -640 628 -850
1163 -1998 1433 -3080 116 -462 216 -1151 276 -1905 9 -104 14 -666 19 -1840
7 -1874 1 -1723 74 -1918 100 -266 105 -437 26 -900 -60 -349 -65 -435 -52
-843 13 -377 5 -740 -23 -1074 -9 -102 -22 -405 -30 -675 -18 -620 -33 -766
-110 -1116 -117 -523 -291 -994 -511 -1375 -246 -429 -673 -947 -1096 -1332
-719 -653 -1502 -1138 -2743 -1699 -548 -248 -909 -386 -2120 -810 -839 -293
-952 -328 -1363 -418 -190 -41 -366 -139 -533 -297 -32 -29 -146 -150 -255
-268 -357 -385 -1436 -1462 -1749 -1744 -573 -516 -1091 -778 -1730 -873 -168
-25 -562 -25 -730 0 -445 66 -828 210 -1188 446 -233 153 -395 282 -787 625
-116 102 -322 279 -458 393 -136 114 -324 276 -419 360 -195 171 -226 194
-338 250 -176 88 -324 124 -735 178 -380 50 -746 114 -1250 219 -146 30 -348
68 -450 85 -102 17 -270 44 -375 61 -602 99 -1013 191 -2075 466 -1173 304
-2147 609 -3425 1072 -1291 468 -2138 870 -2892 1373 -635 424 -1147 922
-1532 1489 -227 334 -381 624 -526 989 -204 516 -307 1006 -357 1706 -17 237
-14 1180 7 2585 9 591 20 1854 25 2805 12 2266 25 2595 120 3171 112 684 318
1433 553 2014 344 852 869 1747 1391 2374 226 271 672 736 694 722 20 -12 108
-296 232 -746 206 -748 346 -1116 665 -1745 189 -373 264 -503 309 -539 34
-28 44 -31 104 -30 65 1 75 5 332 132 392 193 608 282 857 352 132 37 168 55
183 89 15 37 -3 80 -69 170 -221 302 -411 656 -613 1145 -234 564 -437 1258
-503 1716 -14 96 -32 209 -41 250 -48 230 -34 312 68 412 51 50 519 336 850
519 1179 654 2449 1133 4133 1560 1062 268 1911 426 2905 538 665 75 1224 114
2070 144 214 8 1375 5 1570 -3z m-17564 -10325 c73 -30 67 275 65 -3313 -1
-1773 -5 -3231 -8 -3240 -12 -35 -46 -62 -79 -62 -43 0 -172 67 -374 192
l-165 103 -1 1935 c-2 2265 -5 2578 -28 2705 -59 322 -183 583 -415 874 -46
57 -91 122 -101 144 l-18 41 34 40 c41 48 175 170 254 231 195 150 468 286
695 346 87 22 97 23 141 4z m33334 -5 c129 -31 264 -77 376 -130 201 -94 337
-199 519 -401 l127 -139 -78 -83 c-310 -330 -472 -669 -523 -1098 -6 -52 -13
-870 -17 -2124 l-6 -2040 22 -60 c31 -84 35 -135 15 -194 -22 -67 -77 -127
-187 -201 -51 -35 -113 -80 -138 -100 -25 -21 -56 -41 -70 -45 -14 -4 -51 -18
-82 -31 -95 -40 -157 -30 -177 26 -7 22 -11 1008 -11 3299 -1 2939 0 3272 14
3299 9 17 21 32 28 35 28 12 107 6 188 -13z"/>
<path d="M13810 25443 c-946 -10 -2132 -65 -2814 -129 -287 -27 -493 -76 -927
-223 -274 -92 -363 -128 -538 -216 -227 -113 -442 -249 -707 -447 -505 -378
-893 -836 -1161 -1373 -256 -510 -418 -1127 -478 -1815 -18 -206 -20 -834 -5
-1175 36 -793 162 -1334 440 -1900 400 -813 1022 -1362 1842 -1623 215 -69
455 -115 743 -144 170 -17 14762 -14 14915 3 281 31 532 124 723 267 41 32
231 199 423 372 192 174 617 556 944 850 327 294 741 667 920 830 591 537 698
623 1015 813 371 224 741 358 1188 432 229 38 956 57 1342 36 116 -7 280 -14
365 -17 148 -5 157 -5 200 18 62 32 84 71 114 199 57 242 61 283 59 594 -5
875 -148 1533 -478 2203 -187 380 -379 652 -675 956 -228 234 -450 419 -729
608 -403 273 -765 453 -1201 598 -403 134 -727 198 -1225 240 -73 6 -1200 15
-2900 21 -2185 9 -3186 9 -4680 -1 -1939 -14 -1999 -13 -4685 20 -641 8 -1458
9 -2030 3z"/>
<path d="M31358 19020 c-636 -32 -1028 -117 -1424 -312 -280 -137 -516 -321
-967 -753 -345 -331 -443 -421 -652 -600 -258 -222 -309 -269 -740 -689 -198
-194 -508 -491 -690 -661 -656 -616 -949 -893 -2550 -2415 -512 -487 -1086
-1031 -1275 -1210 -372 -350 -530 -501 -795 -762 -108 -106 -180 -169 -199
-174 -44 -11 -80 13 -211 137 -360 343 -570 532 -1010 909 -176 151 -626 543
-1000 870 -959 839 -1540 1334 -1720 1466 -215 158 -423 261 -640 317 -146 38
-234 47 -480 50 -214 2 -223 1 -330 -27 -60 -15 -144 -42 -185 -58 -118 -47
-1377 -691 -1770 -906 -613 -335 -781 -455 -861 -618 -31 -63 -34 -76 -34
-164 0 -89 2 -99 37 -171 57 -117 126 -195 374 -430 375 -354 496 -461 855
-762 310 -258 614 -528 1219 -1082 416 -381 1217 -1105 2030 -1835 569 -511
1454 -1308 2209 -1988 512 -462 852 -655 1291 -734 163 -29 429 -29 591 0 346
63 614 200 901 465 100 91 1295 1305 1784 1812 762 789 1661 1744 2419 2570
558 607 812 879 1120 1199 357 371 438 457 919 981 242 264 558 606 701 760
499 537 932 1012 2032 2231 298 330 599 667 668 750 332 391 547 722 590 904
34 147 11 291 -63 406 -149 229 -546 409 -1067 483 -281 40 -747 58 -1077 41z"/>
</g>
</svg>
